<?xml version="1.0" standalone="no"?>
<!DOCTYPE svg PUBLIC "-//W3C//DTD SVG 20010904//EN"
 "http://www.w3.org/TR/2001/REC-SVG-20010904/DTD/svg10.dtd">
<svg version="1.0" xmlns="http://www.w3.org/2000/svg"
 width="2481.000000pt" height="2481.000000pt" viewBox="0 0 2481.000000 2481.000000"
 preserveAspectRatio="xMidYMid meet">

<g transform="translate(0.000000,2481.000000) scale(0.100000,-0.100000)"
fill="#000000" stroke="none">
<path d="M12235 19675 c-78 -15 -131 -32 -196 -65 -138 -70 -3814 -2201 -3864
-2240 -121 -94 -215 -240 -255 -395 -20 -77 -20 -108 -20 -2340 0 -2217 0
-2263 20 -2339 39 -153 148 -318 266 -404 73 -53 3770 -2190 3871 -2238 104
-49 189 -67 318 -67 123 1 227 23 317 69 129 66 3819 2202 3869 2240 152 117
253 296 279 498 7 56 10 774 8 2296 -3 2053 -5 2220 -21 2277 -50 186 -165
347 -318 446 -30 19 -900 523 -1934 1120 -1167 673 -1907 1094 -1950 1110
-129 46 -259 57 -390 32z m360 -370 c33 -9 87 -28 120 -44 81 -37 3487 -2004
3547 -2048 127 -92 233 -248 280 -409 l23 -79 0 -2085 c0 -1989 -1 -2088 -18
-2149 -54 -189 -165 -344 -318 -444 -30 -19 -828 -482 -1773 -1028 -1134 -654
-1746 -1001 -1796 -1020 -180 -65 -382 -58 -552 19 -64 29 -3470 1993 -3543
2042 -64 44 -179 172 -218 241 -20 35 -48 100 -64 144 l-28 80 -3 2090 c-2
2062 -2 2091 18 2170 40 159 142 320 261 412 67 51 3516 2043 3596 2076 32 14
83 30 113 36 30 6 64 13 75 15 39 9 221 -3 280 -19z"/>
<path d="M12281 18830 c-86 -12 -191 -45 -266 -82 -88 -45 -2909 -1674 -2980
-1721 -166 -112 -300 -307 -357 -520 l-23 -82 -2 -1590 c-1 -979 2 -1581 7
-1567 20 47 91 141 146 191 192 176 466 215 698 100 33 -17 66 -35 74 -42 11
-8 13 -7 10 5 -2 10 241 239 692 653 382 350 699 641 703 645 5 4 -3 31 -18
60 -61 120 -81 288 -49 420 27 115 77 204 168 295 127 129 270 189 446 188
172 -1 310 -60 436 -187 89 -89 141 -179 170 -296 20 -78 15 -252 -9 -317
l-16 -42 670 -685 669 -684 55 19 c157 55 330 42 485 -36 l45 -23 707 620 706
621 -33 51 c-62 93 -87 177 -93 306 -5 138 10 207 70 322 115 223 374 360 620
328 41 -5 87 -14 102 -20 15 -5 32 -10 37 -10 16 0 11 626 -5 712 -41 212
-164 411 -335 542 -63 48 -2960 1723 -3048 1762 -126 56 -338 84 -482 64z"/>
<path d="M11856 14628 c-171 -111 -417 -124 -598 -32 l-49 25 -33 -28 c-18
-15 -340 -311 -715 -658 -470 -434 -681 -634 -677 -645 3 -8 17 -49 32 -90 35
-99 44 -245 20 -340 -69 -271 -286 -458 -561 -484 -101 -10 -218 13 -323 64
-108 52 -221 160 -276 265 -29 55 -36 63 -32 37 10 -59 65 -183 121 -268 62
-96 148 -185 231 -241 87 -59 2917 -1691 2999 -1730 126 -59 211 -76 380 -76
134 0 160 3 240 27 50 15 124 44 165 65 102 51 2910 1674 2983 1723 194 132
334 341 381 570 14 67 16 189 16 917 l0 839 -57 -15 c-91 -25 -242 -22 -335 6
-67 21 -80 22 -95 10 -53 -42 -1419 -1254 -1421 -1261 -2 -5 1 -14 6 -21 28
-34 64 -167 69 -252 10 -178 -46 -331 -169 -461 -83 -87 -153 -132 -263 -170
-68 -23 -96 -27 -190 -27 -94 0 -122 4 -190 27 -110 38 -180 83 -263 170 -208
220 -228 547 -47 801 14 19 -18 53 -602 625 -339 333 -632 619 -652 636 l-36
31 -59 -39z"/>
<path d="M17951 8190 c-174 -24 -293 -82 -412 -200 -71 -71 -93 -101 -132
-180 -87 -178 -113 -330 -104 -608 6 -195 21 -279 71 -412 84 -224 254 -377
482 -431 76 -18 109 -20 229 -16 162 6 225 20 345 79 191 93 322 287 342 508
l3 35 -186 3 -187 2 -7 -47 c-18 -120 -75 -206 -164 -247 -39 -18 -65 -21
-176 -21 -116 0 -135 2 -172 22 -90 49 -148 137 -180 275 -24 105 -24 511 0
616 54 241 195 344 423 312 160 -22 238 -97 268 -259 l12 -66 185 0 184 0 -3
40 c-13 180 -130 382 -278 480 -140 93 -361 140 -543 115z"/>
<path d="M19555 8190 c-167 -19 -308 -77 -406 -168 -34 -31 -72 -73 -85 -94
-93 -147 -84 -364 21 -506 87 -119 220 -198 490 -292 253 -89 330 -133 361
-207 35 -83 5 -192 -64 -237 -60 -39 -109 -49 -233 -44 -91 3 -124 8 -164 26
-92 42 -142 111 -152 208 l-6 54 -190 0 -190 0 7 -62 c31 -270 246 -466 570
-519 110 -17 330 -7 426 21 146 42 277 135 333 238 54 99 70 232 42 350 -51
214 -208 342 -566 462 -243 82 -327 130 -361 208 -33 73 -10 157 55 206 54 41
110 56 212 56 179 0 273 -67 294 -209 l6 -46 183 -3 c165 -2 183 -1 189 15 10
26 -22 163 -53 229 -42 86 -149 191 -244 237 -135 66 -315 95 -475 77z"/>
<path d="M4410 7265 l0 -905 80 0 80 0 2 768 3 767 515 -767 515 -768 78 0 77
0 0 905 0 905 -80 0 -80 0 0 -767 0 -766 -513 764 -514 764 -81 3 -82 3 0
-906z"/>
<path d="M6212 7268 l3 -903 563 -3 562 -2 0 70 0 70 -485 0 -485 0 0 365 0
365 425 0 425 0 0 65 0 65 -425 0 -425 0 0 340 0 340 485 0 485 0 0 65 0 65
-565 0 -565 0 2 -902z"/>
<path d="M7652 7268 l3 -903 78 -3 77 -3 0 376 0 375 263 0 264 0 216 -372
215 -373 78 -3 c42 -2 81 1 85 5 5 5 -93 181 -217 392 -124 211 -224 384 -222
385 2 1 38 19 82 40 191 93 298 282 283 501 -17 235 -150 392 -392 462 -51 14
-117 17 -438 21 l-377 3 2 -903z m764 750 c122 -36 204 -103 253 -207 23 -51
26 -67 26 -171 -1 -95 -5 -123 -22 -160 -47 -102 -133 -177 -241 -210 -57 -18
-94 -20 -343 -20 l-279 0 0 396 0 396 278 -5 c208 -3 290 -8 328 -19z"/>
<path d="M9270 7264 l0 -906 323 4 c317 4 324 5 412 32 139 42 218 89 316 186
71 71 93 101 132 180 82 167 91 216 91 505 0 289 -9 339 -90 504 -39 78 -62
110 -133 181 -90 90 -159 137 -258 171 -120 42 -190 49 -499 49 l-294 0 0
-906z m635 761 c234 -42 419 -230 469 -477 22 -106 22 -448 1 -556 -36 -180
-155 -348 -302 -425 -110 -58 -166 -67 -420 -67 l-223 0 0 770 0 770 198 0
c124 -1 226 -6 277 -15z"/>
<path d="M11389 8143 c-161 -424 -663 -1753 -666 -1765 -5 -16 3 -18 75 -18
l80 0 62 168 c33 92 76 206 93 255 l32 87 409 -2 410 -3 92 -250 92 -250 81
-3 c44 -2 81 -1 81 1 0 2 -153 408 -340 902 -187 493 -340 899 -340 901 0 2
-34 4 -75 4 -73 0 -76 -1 -86 -27z m272 -676 c93 -253 169 -461 169 -463 0 -2
-161 -4 -359 -4 l-358 0 174 473 c95 259 176 479 179 487 7 18 -13 69 195
-493z"/>
<path d="M12422 7268 l3 -903 583 -3 582 -2 0 155 0 155 -395 0 -395 0 0 750
0 750 -190 0 -190 0 2 -902z"/>
<path d="M13300 8164 c0 -3 133 -263 295 -578 l295 -572 0 -327 0 -327 190 0
190 0 0 329 0 328 295 573 c162 315 295 574 295 576 0 2 -92 4 -204 4 l-204 0
-183 -400 c-101 -220 -186 -400 -190 -400 -3 0 -88 180 -189 400 l-183 400
-203 0 c-112 0 -204 -2 -204 -6z"/>
<path d="M14932 8018 l3 -153 273 -3 272 -2 0 -750 0 -750 185 0 185 0 0 750
0 750 278 2 277 3 3 153 3 152 -741 0 -741 0 3 -152z"/>
<path d="M16640 7265 l0 -905 188 2 187 3 3 903 2 902 -190 0 -190 0 0 -905z"/>
</g>
</svg>
